<svg width="1280" height="295" viewBox="0 0 1280 295" fill="none" xmlns="http://www.w3.org/2000/svg">
<path d="M38.1648 89.4787V58.5454H183.906V89.4787H129.578V236H92.4929V89.4787H38.1648ZM207.908 236V58.5454H245.426V131.763H321.589V58.5454H359.021V236H321.589V162.696H245.426V236H207.908ZM389.955 236V58.5454H509.528V89.4787H427.473V131.763H503.376V162.696H427.473V205.067H509.875V236H389.955ZM595.83 236V58.5454H666.881C679.936 58.5454 690.824 60.4806 699.547 64.3508C708.269 68.2211 714.826 73.5933 719.216 80.4673C723.606 87.2836 725.801 95.1397 725.801 104.036C725.801 110.967 724.415 117.062 721.642 122.318C718.869 127.517 715.057 131.792 710.205 135.142C705.41 138.435 699.922 140.774 693.741 142.161V143.893C700.5 144.182 706.825 146.089 712.717 149.612C718.667 153.136 723.491 158.075 727.188 164.429C730.884 170.725 732.733 178.235 732.733 186.957C732.733 196.373 730.393 204.778 725.714 212.172C721.093 219.508 714.248 225.313 705.179 229.588C696.11 233.863 684.932 236 671.646 236H595.83ZM633.348 205.327H663.935C674.39 205.327 682.015 203.334 686.81 199.348C691.604 195.304 694.001 189.932 694.001 183.232C694.001 178.321 692.817 173.989 690.449 170.234C688.08 166.48 684.701 163.534 680.311 161.396C675.979 159.259 670.809 158.19 664.801 158.19H633.348V205.327ZM633.348 132.803H661.162C666.303 132.803 670.866 131.907 674.852 130.116C678.896 128.268 682.073 125.669 684.384 122.318C686.752 118.968 687.936 114.953 687.936 110.274C687.936 103.862 685.654 98.6922 681.091 94.7642C676.585 90.8362 670.173 88.8721 661.855 88.8721H633.348V132.803ZM757.146 236V58.5454H794.664V205.067H870.741V236H757.146ZM1051.75 147.273C1051.75 166.624 1048.08 183.087 1040.74 196.662C1033.47 210.237 1023.53 220.606 1010.94 227.768C998.402 234.874 984.307 238.426 968.653 238.426C952.883 238.426 938.731 234.845 926.196 227.682C913.661 220.519 903.754 210.15 896.475 196.575C889.197 183 885.558 166.566 885.558 147.273C885.558 127.921 889.197 111.458 896.475 97.8835C903.754 84.3087 913.661 73.9687 926.196 66.8636C938.731 59.7008 952.883 56.1193 968.653 56.1193C984.307 56.1193 998.402 59.7008 1010.94 66.8636C1023.53 73.9687 1033.47 84.3087 1040.74 97.8835C1048.08 111.458 1051.75 127.921 1051.75 147.273ZM1013.71 147.273C1013.71 134.738 1011.83 124.167 1008.08 115.56C1004.38 106.953 999.153 100.425 992.395 95.9773C985.636 91.5294 977.722 89.3054 968.653 89.3054C959.584 89.3054 951.67 91.5294 944.912 95.9773C938.153 100.425 932.896 106.953 929.142 115.56C925.445 124.167 923.596 134.738 923.596 147.273C923.596 159.808 925.445 170.379 929.142 178.986C932.896 187.593 938.153 194.12 944.912 198.568C951.67 203.016 959.584 205.24 968.653 205.24C977.722 205.24 985.636 203.016 992.395 198.568C999.153 194.12 1004.38 187.593 1008.08 178.986C1011.83 170.379 1013.71 159.808 1013.71 147.273ZM1197.21 115.906C1196 111.689 1194.29 107.964 1192.1 104.729C1189.9 101.436 1187.21 98.6634 1184.04 96.4105C1180.92 94.0999 1177.34 92.3381 1173.29 91.125C1169.31 89.9119 1164.89 89.3054 1160.04 89.3054C1150.97 89.3054 1143 91.5582 1136.12 96.0639C1129.31 100.57 1123.99 107.126 1120.18 115.733C1116.37 124.282 1114.46 134.738 1114.46 147.099C1114.46 159.461 1116.34 169.974 1120.09 178.639C1123.85 187.304 1129.16 193.918 1136.03 198.482C1142.91 202.987 1151.02 205.24 1160.38 205.24C1168.87 205.24 1176.12 203.738 1182.13 200.734C1188.2 197.673 1192.82 193.369 1196 187.824C1199.23 182.278 1200.85 175.722 1200.85 168.155L1208.47 169.281H1162.72V141.034H1236.98V163.389C1236.98 178.986 1233.69 192.387 1227.1 203.594C1220.52 214.742 1211.45 223.349 1199.89 229.415C1188.34 235.422 1175.11 238.426 1160.21 238.426C1143.57 238.426 1128.96 234.758 1116.37 227.422C1103.77 220.028 1093.95 209.544 1086.91 195.969C1079.92 182.336 1076.42 166.162 1076.42 147.446C1076.42 133.062 1078.5 120.239 1082.66 108.974C1086.88 97.6525 1092.77 88.0634 1100.34 80.2074C1107.9 72.3513 1116.71 66.3726 1126.76 62.2713C1136.81 58.17 1147.7 56.1193 1159.43 56.1193C1169.48 56.1193 1178.84 57.5923 1187.5 60.5383C1196.17 63.4266 1203.85 67.5279 1210.55 72.8423C1217.31 78.1567 1222.83 84.482 1227.1 91.8182C1231.38 99.0966 1234.12 107.126 1235.33 115.906H1197.21Z" fill="white"/>
<path d="M0 1H1280V-1H0V1ZM1280 294H0V296H1280V294Z" fill="white" mask="url(#path-1-inside-1_4_1010)"/>
</svg>
