<svg width="24" height="24" viewBox="0 0 24 24" fill="none" xmlns="http://www.w3.org/2000/svg">
<path d="M11.9794 22.2409L11.9794 22.2408L11.9723 22.2405C6.62041 22.0016 2.15041 17.6859 1.77876 12.4446L1.77872 12.4441C1.45435 7.94113 4.05841 3.72952 8.26292 1.96128C8.81553 1.73155 9.19107 1.72361 9.4307 1.77153C9.67013 1.81942 9.81779 1.93182 9.90031 2.01729L9.90025 2.01734L9.90646 2.02355C9.99122 2.10831 10.0995 2.25497 10.1442 2.48441C10.1888 2.71284 10.1793 3.06927 9.95184 3.58978L9.95134 3.59095C9.46363 4.71479 9.21956 5.91371 9.23002 7.14328C9.25182 11.8462 13.1487 15.8183 17.8985 16.0095C18.5887 16.0413 19.2653 15.988 19.9174 15.8723L19.9195 15.8719C20.5024 15.7659 20.8652 15.8382 21.0845 15.935C21.3035 16.0316 21.4219 16.1713 21.4846 16.2727C21.5494 16.3776 21.6233 16.5482 21.6141 16.7884C21.605 17.0285 21.511 17.3862 21.1582 17.8624L21.1564 17.8649C19.1319 20.6342 15.9129 22.25 12.46 22.25C12.2876 22.25 12.1323 22.2498 11.9794 22.2409ZM2.27119 12.4043L2.27128 12.4056C2.62975 17.4242 6.89952 21.5181 11.987 21.7395C15.4443 21.9072 18.7243 20.3306 20.7433 17.5755L20.7433 17.5756L20.7469 17.5706C20.9192 17.3293 21.0111 17.141 21.0582 17.0156L21.2838 16.414L20.6452 16.3431C20.514 16.3285 20.3032 16.3181 19.9974 16.3786C19.3055 16.5015 18.5833 16.5489 17.87 16.5204L17.8699 16.5204C12.8529 16.3208 8.74922 12.1061 8.72001 7.15853C8.7202 5.84657 8.97651 4.58681 9.49652 3.40397C9.62394 3.12268 9.65274 2.91926 9.66615 2.81201L9.7364 2.24999H9.17001C9.00018 2.24999 8.77391 2.28898 8.46583 2.41924C4.46093 4.10137 1.97638 8.11899 2.27119 12.4043Z" stroke="#090D1F"/>
</svg>
